<?xml version="1.0" encoding="utf-8"?>
<!-- Generator: Adobe Illustrator 25.4.1, SVG Export Plug-In . SVG Version: 6.00 Build 0)  -->
<svg version="1.1" id="Layer_1" xmlns="http://www.w3.org/2000/svg" xmlns:xlink="http://www.w3.org/1999/xlink" x="0px" y="0px"
	 viewBox="0 0 432 432" style="enable-background:new 0 0 432 432;" xml:space="preserve">
<style type="text/css">
	.st0{fill:#ABCD37;}
	.st1{fill:#60B2E3;}
	.st2{fill:#F4B932;}
</style>
<g>
	<g>
		<g>
			<g>
				<g>
					<g>
						<path class="st0" d="M109.37,158c5.19-10.11,3.05-19.87-6.3-26.17C103.07,131.83,92.07,147.34,109.37,158L109.37,158z"/>
						<path class="st0" d="M120.79,138.2c6.92-9,6.58-19.04-1.52-26.86C119.27,111.34,105.7,124.7,120.79,138.2L120.79,138.2z"/>
						<path class="st0" d="M133.88,123.31c11.35-0.07,19.04-6.51,20.28-17.72C154.16,105.59,135.26,103.1,133.88,123.31
							L133.88,123.31z"/>
						<path class="st0" d="M125.64,141.11c10.66,3.81,20.08,0.41,25.06-9.69C150.7,131.41,133.81,122.55,125.64,141.11
							L125.64,141.11z"/>
						<path class="st0" d="M114.01,160.01c10.66,3.81,20.15,0.42,25.13-9.69C139.14,150.31,122.25,141.45,114.01,160.01
							L114.01,160.01z"/>
						<g>
							<path class="st0" d="M104.6,180.01c10.87,3.18,20.08-0.76,24.51-11.15C129.1,168.87,111.73,160.97,104.6,180.01L104.6,180.01
								z"/>
						</g>
						<g>
							<path class="st0" d="M101.55,199.67c10.38,1.45,18.35-3.32,20.98-13.43C122.53,186.24,105.57,181.33,101.55,199.67
								L101.55,199.67z"/>
						</g>
						<g>
							<path class="st0" d="M96.77,219.82c10.45,0.69,18-4.71,19.94-14.95C116.71,204.86,99.4,201.26,96.77,219.82L96.77,219.82z"/>
						</g>
						<g>
							<path class="st0" d="M97.4,241.07c10.45,0.21,17.72-5.54,19.11-15.92C116.5,225.15,99.06,222.38,97.4,241.07L97.4,241.07z"/>
						</g>
						<path class="st0" d="M102.31,263.43c10.11-2.98,15.3-10.66,13.5-20.91C115.81,242.52,98.37,245.15,102.31,263.43
							L102.31,263.43z"/>
						<path class="st0" d="M116.5,295.21c-22.91-34.75-27.83-77.67-15.16-115.89l0,0c0.14-0.42,0.28-0.76,0.42-1.11
							c0-0.14,0.07-0.35,0.14-0.48l0,0c2.91-10.04-0.69-18.76-10.31-23.47c0,0-8.52,16.34,8.93,24.64
							c-1.59,3.88-3.05,7.82-4.22,11.84c-1.04-6.85-5.47-12.18-13.08-14.88c0,0-6.37,16.69,10.87,23.19
							c-0.83,3.53-1.52,7.13-2.08,10.73c-2.56-6.16-7.96-10.31-15.71-11.49c0,0-3.11,17.65,14.68,21.25
							c-0.28,4.02-0.41,7.96-0.35,11.98c-3.53-5.33-9.35-8.38-16.89-8.31c0,0-0.41,17.79,17.51,18.69c0.42,4.01,1.04,8.03,1.8,12.04
							c-4.15-4.71-10.25-6.92-17.65-6.09c0,0,1.59,18.41,20.28,17.1c3.25,11.28,7.75,23.61,13.92,34.61
							c2.98,2.42,5.88,4.36,9.21,6.16c-0.55-2.08-1.04-4.15-1.45-6.23C116.99,298.05,116.78,296.66,116.5,295.21L116.5,295.21z"/>
					</g>
				</g>
				<g>
					<g>
						<path class="st0" d="M306.33,158c-5.19-10.11-3.11-19.87,6.23-26.17C312.55,131.83,323.56,147.34,306.33,158L306.33,158z"/>
						<path class="st0" d="M294.83,138.2c-6.85-9-6.51-19.04,1.59-26.86C296.43,111.34,309.99,124.7,294.83,138.2L294.83,138.2z"/>
						<path class="st0" d="M281.82,123.31c-11.35-0.07-19.04-6.51-20.28-17.72C261.53,105.59,280.43,103.1,281.82,123.31
							L281.82,123.31z"/>
						<path class="st0" d="M290.05,141.11c-10.66,3.81-20.14,0.41-25.13-9.69C264.93,131.41,281.82,122.55,290.05,141.11
							L290.05,141.11z"/>
						<path class="st0" d="M301.62,160.01c-10.66,3.81-20.08,0.42-25.06-9.69C276.56,150.31,293.45,141.45,301.62,160.01
							L301.62,160.01z"/>
						<g>
							<path class="st0" d="M311.1,180.01c-10.87,3.18-20.15-0.76-24.51-11.15C286.59,168.87,303.9,160.97,311.1,180.01
								L311.1,180.01z"/>
						</g>
						<g>
							<path class="st0" d="M314.08,199.67c-10.38,1.45-18.28-3.32-20.91-13.43C293.17,186.24,310.13,181.33,314.08,199.67
								L314.08,199.67z"/>
						</g>
						<g>
							<path class="st0" d="M318.86,219.82c-10.45,0.69-18-4.71-19.87-14.95C298.99,204.86,316.22,201.26,318.86,219.82
								L318.86,219.82z"/>
						</g>
						<g>
							<path class="st0" d="M318.3,241.07c-10.45,0.21-17.72-5.54-19.11-15.92C299.19,225.15,316.57,222.38,318.3,241.07
								L318.3,241.07z"/>
						</g>
						<path class="st0" d="M313.32,263.43c-10.04-2.98-15.23-10.66-13.43-20.91C299.89,242.52,317.33,245.15,313.32,263.43
							L313.32,263.43z"/>
						<path class="st0" d="M299.19,295.21c22.91-34.75,27.83-77.67,15.09-115.89l0,0c-0.14-0.42-0.21-0.76-0.35-1.11
							c-0.07-0.14-0.07-0.35-0.14-0.48l0,0c-2.91-10.04,0.62-18.76,10.25-23.47c0,0,8.58,16.34-8.93,24.64
							c1.66,3.88,3.05,7.82,4.29,11.84c0.97-6.85,5.47-12.18,13.01-14.88c0,0,6.37,16.69-10.8,23.19c0.83,3.53,1.52,7.13,2.01,10.73
							c2.56-6.16,7.96-10.31,15.72-11.49c0,0,3.18,17.65-14.61,21.25c0.28,4.02,0.35,7.96,0.28,11.98
							c3.53-5.33,9.35-8.38,16.96-8.31c0,0,0.35,17.79-17.58,18.69c-0.42,4.01-0.97,8.03-1.73,12.04
							c4.15-4.71,10.25-6.92,17.65-6.09c0,0-1.59,18.41-20.35,17.1c-3.25,11.28-7.68,23.61-13.84,34.61
							c-2.98,2.42-5.89,4.36-9.21,6.16c0.48-2.08,0.97-4.15,1.45-6.23C298.64,298.05,298.92,296.66,299.19,295.21L299.19,295.21z"/>
					</g>
				</g>
			</g>
			<g>
				<rect x="154.23" y="151.22" class="st0" width="33.47" height="157.19"/>
				<path class="st1" d="M230.13,151.22h-42.44v28.72h36.98c11.98,0,21.7,9.72,21.7,21.7v0c0,11.98-9.72,21.7-21.7,21.7h-36.98
					v28.72h42.44c27.84,0,50.42-22.57,50.42-50.42v0C280.55,173.8,257.98,151.22,230.13,151.22z"/>
				<path class="st2" d="M246.92,249.18c-5.25,1.85-10.9,2.87-16.79,2.87h-19.95l32.89,56.36h38.41L246.92,249.18z"/>
			</g>
			<g>
				<path class="st2" d="M221.33,122.31c-12.25,0-22.17-9.93-22.17-22.17c0-11.55,14.06-24.7,21-39.46
					c-4.29-6.55-8.1-13.23-10.2-19.95c-9.42,23.48-32.83,44.27-32.83,62.4c0,18.13,14.7,32.83,32.83,32.83
					c17.06,0,31.08-13.02,32.68-29.66C239.96,115.54,231.44,122.31,221.33,122.31z"/>
				<path class="st1" d="M237.64,98.86c0,8.28-6.72,15-15,15l0,0c-8.28,0-15-6.72-15-15l0,0c0-8.28,10.7-17.78,15-28.51
					C225.83,80.56,237.64,90.57,237.64,98.86L237.64,98.86z"/>
			</g>
		</g>
	</g>
	<g>
		<path class="st0" d="M99.53,343.75v26.77c0.11,1.22,0.44,1.61,1.72,1.94v0.89h-8.66v-0.89c1.28-0.33,1.61-0.72,1.72-1.94v-31.38
			c-0.11-1.22-0.44-1.61-1.72-1.94v-0.89h11.83v0.89c-0.94,0.28-1.33,0.61-1.33,1.06c0,0.39,0,0.39,0.94,2.17l10.94,20.66
			l10.89-20.88c0.5-0.94,0.67-1.44,0.67-1.94c0-0.44-0.33-0.72-1.33-1.06v-0.89h12.05v0.89c-1.28,0.33-1.61,0.72-1.72,1.94v31.38
			c0.11,1.22,0.44,1.61,1.72,1.94v0.89h-9.33v-0.89c1.28-0.33,1.61-0.72,1.72-1.94v-26.77l-15,28.55L99.53,343.75z"/>
		<path class="st0" d="M158.91,368.51h23.27c1.28-0.11,1.61-0.44,2-1.72h0.83v8.27h-0.83c-0.33-1.28-0.78-1.61-2-1.72H151.3v-0.89
			c1.28-0.39,1.61-0.72,1.72-1.94v-31.38c-0.11-1.22-0.44-1.56-1.72-1.94v-0.89h29.82c1.22-0.11,1.61-0.44,1.94-1.72h0.89v8.27
			h-0.89c-0.33-1.28-0.72-1.67-1.94-1.72h-22.22v10.72h14.61c1.22-0.11,1.61-0.44,1.94-1.72h0.89v8.27h-0.89
			c-0.33-1.28-0.72-1.61-1.94-1.72h-14.61V368.51z"/>
		<path class="st0" d="M197.63,372.46c1.28-0.39,1.61-0.72,1.72-1.94v-31.38c-0.11-1.22-0.44-1.56-1.72-1.94v-0.89h20.27
			c7.11,0,10.94,1.11,14.22,4.17c3.61,3.39,5.55,8.44,5.55,14.33c0,5.94-1.94,11-5.55,14.38c-3.28,3-7.16,4.16-14.22,4.16h-20.27
			V372.46z M216.9,368.51c6.16,0,9.22-1.06,11.61-3.89c1.94-2.44,3.05-5.94,3.05-9.83c0-3.83-1.11-7.28-3.05-9.77
			c-2.33-2.83-5.44-3.89-11.61-3.89h-11.66v27.38H216.9z"/>
		<path class="st0" d="M257.44,336.3v0.89c-1.28,0.33-1.61,0.72-1.72,1.94v31.38c0.11,1.22,0.44,1.61,1.72,1.94v0.89h-9.33v-0.89
			c1.28-0.33,1.61-0.72,1.72-1.94v-31.38c-0.11-1.22-0.44-1.61-1.72-1.94v-0.89H257.44z"/>
		<path class="st0" d="M277.41,363.74l-2.72,6.28c-0.5,1.06-0.5,1.06-0.5,1.39c0,0.61,0.44,0.89,1.61,1.06v0.89h-9.61v-0.89
			c1.44-0.22,1.89-0.67,3.22-3.5l13.16-29.27c0.39-0.83,0.5-1.17,0.5-1.44c0-0.56-0.33-0.83-1.33-1.06v-0.89h10.83v0.89
			c-1,0.28-1.33,0.55-1.33,1.11c0,0.33,0,0.33,0.5,1.39l13.33,28.21c1.83,4.05,1.89,4.11,3.89,4.55v0.89h-10.33v-0.89
			c1.06-0.11,1.61-0.5,1.61-1.17c0-0.33-0.17-0.78-0.61-1.67l-2.78-5.89H277.41z M286.91,342.36l-7.33,16.55h15.05L286.91,342.36z"
			/>
		<path class="st0" d="M325.29,370.51c0.11,1.22,0.44,1.61,1.72,1.94v0.89h-8.66v-0.89c1.28-0.39,1.61-0.72,1.72-1.94v-31.38
			c-0.11-1.22-0.44-1.61-1.72-1.94v-0.89h12.38v0.89c-0.83,0.28-1.22,0.67-1.22,1.22c0,0.44,0.28,0.95,1.22,2l20.6,23.38v-24.66
			c-0.11-1.22-0.44-1.61-1.72-1.94v-0.89h8.66v0.89c-1.28,0.33-1.67,0.72-1.72,1.94v31.38c0.06,1.22,0.44,1.61,1.72,1.94v0.89h-9.89
			v-0.89c0.83-0.22,1.28-0.61,1.28-1.11c0-0.44-0.33-0.95-1.17-1.94l-23.21-26.27V370.51z"/>
	</g>
</g>
</svg>
